<mxfile host="app.diagrams.net" modified="2021-05-16T02:09:00.231Z" agent="5.0 (Macintosh; Intel Mac OS X 10_15_7) AppleWebKit/605.1.15 (KHTML, like Gecko) Version/14.1 Safari/605.1.15" etag="dWbgv-X1EYSyMnvmjOLO" version="14.6.13" type="github">
  <diagram id="mL9w_366kzxKiF0mCm1G" name="Page-1">
    <mxGraphModel dx="983" dy="552" grid="1" gridSize="10" guides="1" tooltips="1" connect="1" arrows="1" fold="1" page="1" pageScale="1" pageWidth="1100" pageHeight="850" math="0" shadow="0">
      <root>
        <mxCell id="0" />
        <mxCell id="1" parent="0" />
        <mxCell id="jiQC90cPwVuRdfgTzNis-1" value="&lt;h1&gt;Hosted Social Media&lt;/h1&gt;&lt;p&gt;Basic hosted social-media architecture, for reference when creating a more complex model.&lt;/p&gt;" style="text;html=1;strokeColor=none;fillColor=none;spacing=5;spacingTop=-20;whiteSpace=wrap;overflow=hidden;rounded=0;" vertex="1" parent="1">
          <mxGeometry x="40" y="40" width="280" height="80" as="geometry" />
        </mxCell>
        <mxCell id="jiQC90cPwVuRdfgTzNis-6" value="API Gateway" style="whiteSpace=wrap;html=1;align=center;fillColor=#fff2cc;strokeColor=#d6b656;" vertex="1" parent="1">
          <mxGeometry x="560" y="200" width="200" height="40" as="geometry" />
        </mxCell>
        <mxCell id="jiQC90cPwVuRdfgTzNis-10" style="edgeStyle=orthogonalEdgeStyle;rounded=0;orthogonalLoop=1;jettySize=auto;html=1;entryX=0.5;entryY=0;entryDx=0;entryDy=0;" edge="1" parent="1" source="jiQC90cPwVuRdfgTzNis-7" target="jiQC90cPwVuRdfgTzNis-8">
          <mxGeometry relative="1" as="geometry" />
        </mxCell>
        <mxCell id="jiQC90cPwVuRdfgTzNis-7" value="Media Processor" style="whiteSpace=wrap;html=1;align=center;fillColor=#f5f5f5;strokeColor=#666666;fontColor=#333333;" vertex="1" parent="1">
          <mxGeometry x="360" y="260" width="100" height="40" as="geometry" />
        </mxCell>
        <mxCell id="jiQC90cPwVuRdfgTzNis-15" style="edgeStyle=orthogonalEdgeStyle;rounded=0;orthogonalLoop=1;jettySize=auto;html=1;exitX=1;exitY=0.5;exitDx=0;exitDy=0;startArrow=classic;startFill=1;" edge="1" parent="1" source="jiQC90cPwVuRdfgTzNis-8" target="jiQC90cPwVuRdfgTzNis-13">
          <mxGeometry relative="1" as="geometry">
            <mxPoint x="460" y="320" as="sourcePoint" />
            <mxPoint x="520" y="311" as="targetPoint" />
            <Array as="points">
              <mxPoint x="520" y="340" />
              <mxPoint x="520" y="340" />
            </Array>
          </mxGeometry>
        </mxCell>
        <mxCell id="jiQC90cPwVuRdfgTzNis-8" value="S3 Bucket" style="whiteSpace=wrap;html=1;align=center;fillColor=#dae8fc;strokeColor=#6c8ebf;" vertex="1" parent="1">
          <mxGeometry x="360" y="320" width="100" height="40" as="geometry" />
        </mxCell>
        <mxCell id="jiQC90cPwVuRdfgTzNis-17" style="edgeStyle=orthogonalEdgeStyle;rounded=0;orthogonalLoop=1;jettySize=auto;html=1;entryX=1;entryY=0.5;entryDx=0;entryDy=0;exitX=0.25;exitY=0;exitDx=0;exitDy=0;" edge="1" parent="1" source="jiQC90cPwVuRdfgTzNis-13" target="jiQC90cPwVuRdfgTzNis-7">
          <mxGeometry relative="1" as="geometry" />
        </mxCell>
        <mxCell id="jiQC90cPwVuRdfgTzNis-19" value="" style="edgeStyle=orthogonalEdgeStyle;rounded=0;orthogonalLoop=1;jettySize=auto;html=1;entryX=0.05;entryY=1;entryDx=0;entryDy=0;entryPerimeter=0;" edge="1" parent="1" source="jiQC90cPwVuRdfgTzNis-13" target="jiQC90cPwVuRdfgTzNis-6">
          <mxGeometry relative="1" as="geometry" />
        </mxCell>
        <mxCell id="jiQC90cPwVuRdfgTzNis-13" value="Media service" style="whiteSpace=wrap;html=1;align=center;" vertex="1" parent="1">
          <mxGeometry x="520" y="320" width="100" height="40" as="geometry" />
        </mxCell>
        <mxCell id="jiQC90cPwVuRdfgTzNis-30" style="edgeStyle=orthogonalEdgeStyle;rounded=0;orthogonalLoop=1;jettySize=auto;html=1;" edge="1" parent="1" source="jiQC90cPwVuRdfgTzNis-22" target="jiQC90cPwVuRdfgTzNis-27">
          <mxGeometry relative="1" as="geometry" />
        </mxCell>
        <mxCell id="jiQC90cPwVuRdfgTzNis-22" value="User service" style="swimlane;fontStyle=0;childLayout=stackLayout;horizontal=1;startSize=26;horizontalStack=0;resizeParent=1;resizeParentMax=0;resizeLast=0;collapsible=1;marginBottom=0;align=center;fontSize=14;rounded=1;swimlaneLine=1;glass=0;fillColor=#1ba1e2;strokeColor=#006EAF;fontColor=#ffffff;" vertex="1" parent="1">
          <mxGeometry x="680" y="260" width="160" height="116" as="geometry" />
        </mxCell>
        <mxCell id="jiQC90cPwVuRdfgTzNis-23" value="Authentication" style="text;strokeColor=none;fillColor=none;spacingLeft=4;spacingRight=4;overflow=hidden;rotatable=0;points=[[0,0.5],[1,0.5]];portConstraint=eastwest;fontSize=12;" vertex="1" parent="jiQC90cPwVuRdfgTzNis-22">
          <mxGeometry y="26" width="160" height="30" as="geometry" />
        </mxCell>
        <mxCell id="jiQC90cPwVuRdfgTzNis-24" value="Avatar" style="text;strokeColor=none;fillColor=none;spacingLeft=4;spacingRight=4;overflow=hidden;rotatable=0;points=[[0,0.5],[1,0.5]];portConstraint=eastwest;fontSize=12;" vertex="1" parent="jiQC90cPwVuRdfgTzNis-22">
          <mxGeometry y="56" width="160" height="30" as="geometry" />
        </mxCell>
        <mxCell id="jiQC90cPwVuRdfgTzNis-25" value="Profile metadata" style="text;strokeColor=none;fillColor=none;spacingLeft=4;spacingRight=4;overflow=hidden;rotatable=0;points=[[0,0.5],[1,0.5]];portConstraint=eastwest;fontSize=12;" vertex="1" parent="jiQC90cPwVuRdfgTzNis-22">
          <mxGeometry y="86" width="160" height="30" as="geometry" />
        </mxCell>
        <mxCell id="jiQC90cPwVuRdfgTzNis-26" style="edgeStyle=orthogonalEdgeStyle;rounded=0;orthogonalLoop=1;jettySize=auto;html=1;entryX=1;entryY=0.25;entryDx=0;entryDy=0;startArrow=classic;startFill=1;" edge="1" parent="1" source="jiQC90cPwVuRdfgTzNis-24" target="jiQC90cPwVuRdfgTzNis-13">
          <mxGeometry relative="1" as="geometry">
            <Array as="points">
              <mxPoint x="660" y="330" />
              <mxPoint x="660" y="330" />
            </Array>
          </mxGeometry>
        </mxCell>
        <mxCell id="jiQC90cPwVuRdfgTzNis-29" style="edgeStyle=orthogonalEdgeStyle;rounded=0;orthogonalLoop=1;jettySize=auto;html=1;" edge="1" parent="1" source="jiQC90cPwVuRdfgTzNis-27" target="jiQC90cPwVuRdfgTzNis-28">
          <mxGeometry relative="1" as="geometry" />
        </mxCell>
        <mxCell id="jiQC90cPwVuRdfgTzNis-27" value="DB Cache" style="whiteSpace=wrap;html=1;align=center;fillColor=#e1d5e7;strokeColor=#9673a6;" vertex="1" parent="1">
          <mxGeometry x="680" y="440" width="120" height="40" as="geometry" />
        </mxCell>
        <mxCell id="jiQC90cPwVuRdfgTzNis-28" value="Database" style="whiteSpace=wrap;html=1;align=center;fillColor=#d5e8d4;strokeColor=#82b366;" vertex="1" parent="1">
          <mxGeometry x="680" y="500" width="120" height="60" as="geometry" />
        </mxCell>
        <mxCell id="jiQC90cPwVuRdfgTzNis-35" style="edgeStyle=orthogonalEdgeStyle;rounded=0;orthogonalLoop=1;jettySize=auto;html=1;entryX=1;entryY=0.5;entryDx=0;entryDy=0;" edge="1" parent="1" source="jiQC90cPwVuRdfgTzNis-31" target="jiQC90cPwVuRdfgTzNis-27">
          <mxGeometry relative="1" as="geometry" />
        </mxCell>
        <mxCell id="jiQC90cPwVuRdfgTzNis-31" value="Post service" style="swimlane;fontStyle=0;childLayout=stackLayout;horizontal=1;startSize=26;horizontalStack=0;resizeParent=1;resizeParentMax=0;resizeLast=0;collapsible=1;marginBottom=0;align=center;fontSize=14;rounded=1;glass=0;fillColor=#1ba1e2;strokeColor=#006EAF;fontColor=#ffffff;" vertex="1" parent="1">
          <mxGeometry x="880" y="260" width="160" height="116" as="geometry" />
        </mxCell>
        <mxCell id="jiQC90cPwVuRdfgTzNis-32" value="Content" style="text;strokeColor=none;fillColor=none;spacingLeft=4;spacingRight=4;overflow=hidden;rotatable=0;points=[[0,0.5],[1,0.5]];portConstraint=eastwest;fontSize=12;" vertex="1" parent="jiQC90cPwVuRdfgTzNis-31">
          <mxGeometry y="26" width="160" height="30" as="geometry" />
        </mxCell>
        <mxCell id="jiQC90cPwVuRdfgTzNis-33" value="User ID" style="text;strokeColor=none;fillColor=none;spacingLeft=4;spacingRight=4;overflow=hidden;rotatable=0;points=[[0,0.5],[1,0.5]];portConstraint=eastwest;fontSize=12;" vertex="1" parent="jiQC90cPwVuRdfgTzNis-31">
          <mxGeometry y="56" width="160" height="30" as="geometry" />
        </mxCell>
        <mxCell id="jiQC90cPwVuRdfgTzNis-34" value="Media" style="text;strokeColor=none;fillColor=none;spacingLeft=4;spacingRight=4;overflow=hidden;rotatable=0;points=[[0,0.5],[1,0.5]];portConstraint=eastwest;fontSize=12;" vertex="1" parent="jiQC90cPwVuRdfgTzNis-31">
          <mxGeometry y="86" width="160" height="30" as="geometry" />
        </mxCell>
        <mxCell id="jiQC90cPwVuRdfgTzNis-36" style="edgeStyle=orthogonalEdgeStyle;rounded=0;orthogonalLoop=1;jettySize=auto;html=1;entryX=0.75;entryY=1;entryDx=0;entryDy=0;startArrow=classic;startFill=1;" edge="1" parent="1" source="jiQC90cPwVuRdfgTzNis-34" target="jiQC90cPwVuRdfgTzNis-13">
          <mxGeometry relative="1" as="geometry">
            <Array as="points">
              <mxPoint x="860" y="361" />
              <mxPoint x="860" y="390" />
              <mxPoint x="595" y="390" />
            </Array>
          </mxGeometry>
        </mxCell>
      </root>
    </mxGraphModel>
  </diagram>
</mxfile>
